<svg xmlns="http://www.w3.org/2000/svg" xmlns:xlink="http://www.w3.org/1999/xlink" contentStyleType="text/css" data-diagram-type="DESCRIPTION" height="600px" preserveAspectRatio="none" style="width:603px;height:600px;background:#FFFFFF;" version="1.1" viewBox="0 0 603 600" width="603px" zoomAndPan="magnify"><defs/><g><!--entity Caller--><g class="entity" data-entity="Caller" data-source-line="7" data-uid="ent0002" id="entity_Caller"><ellipse cx="24.8019" cy="259.5" fill="#F1F1F1" rx="8" ry="8" style="stroke:#181818;stroke-width:0.5;"/><path d="M24.8019,267.5 L24.8019,294.5 M11.8019,275.5 L37.8019,275.5 M24.8019,294.5 L11.8019,309.5 M24.8019,294.5 L37.8019,309.5" fill="none" style="stroke:#181818;stroke-width:0.5;"/><text fill="#000000" font-family="sans-serif" font-size="14" lengthAdjust="spacing" textLength="37.6039" x="6" y="325.9659">Caller</text></g><!--entity ARR_A--><g class="entity" data-entity="ARR_A" data-source-line="10" data-uid="ent0003" id="entity_ARR_A"><path d="M472,118 C472,108 514.8719,108 514.8719,108 C514.8719,108 557.7438,108 557.7438,118 L557.7438,165.1358 C557.7438,175.1358 514.8719,175.1358 514.8719,175.1358 C514.8719,175.1358 472,175.1358 472,165.1358 L472,118" fill="#F1F1F1" style="stroke:#181818;stroke-width:0.5;"/><path d="M472,118 C472,128 514.8719,128 514.8719,128 C514.8719,128 557.7438,128 557.7438,118" fill="none" style="stroke:#181818;stroke-width:0.5;"/><text fill="#000000" font-family="sans-serif" font-size="14" lengthAdjust="spacing" textLength="51.6738" x="482" y="146.9659">ndarray</text><text fill="#000000" font-family="sans-serif" font-size="14" lengthAdjust="spacing" textLength="65.7438" x="482" y="166.0339">(&#197; coords)</text></g><!--entity Q_A--><g class="entity" data-entity="Q_A" data-source-line="11" data-uid="ent0004" id="entity_Q_A"><path d="M444,16 C444,6 515.0398,6 515.0398,6 C515.0398,6 586.0795,6 586.0795,16 L586.0795,63.1358 C586.0795,73.1358 515.0398,73.1358 515.0398,73.1358 C515.0398,73.1358 444,73.1358 444,63.1358 L444,16" fill="#F1F1F1" style="stroke:#181818;stroke-width:0.5;"/><path d="M444,16 C444,26 515.0398,26 515.0398,26 C515.0398,26 586.0795,26 586.0795,16" fill="none" style="stroke:#181818;stroke-width:0.5;"/><text fill="#000000" font-family="sans-serif" font-size="14" lengthAdjust="spacing" textLength="122.0795" x="454" y="44.9659">OpenMM Quantity</text><text fill="#000000" font-family="sans-serif" font-size="14" lengthAdjust="spacing" textLength="17.3459" x="454" y="64.0339">(&#197;)</text></g><!--entity ARR_E--><g class="entity" data-entity="ARR_E" data-source-line="12" data-uid="ent0005" id="entity_ARR_E"><path d="M479,322 C479,312 514.8369,312 514.8369,312 C514.8369,312 550.6738,312 550.6738,322 L550.6738,369.1358 C550.6738,379.1358 514.8369,379.1358 514.8369,379.1358 C514.8369,379.1358 479,379.1358 479,369.1358 L479,322" fill="#F1F1F1" style="stroke:#181818;stroke-width:0.5;"/><path d="M479,322 C479,332 514.8369,332 514.8369,332 C514.8369,332 550.6738,332 550.6738,322" fill="none" style="stroke:#181818;stroke-width:0.5;"/><text fill="#000000" font-family="sans-serif" font-size="14" lengthAdjust="spacing" textLength="51.6738" x="489" y="350.9659">ndarray</text><text fill="#000000" font-family="sans-serif" font-size="14" lengthAdjust="spacing" textLength="50.0778" x="489" y="370.0339">(kJ/mol)</text></g><!--entity Q_E--><g class="entity" data-entity="Q_E" data-source-line="13" data-uid="ent0006" id="entity_Q_E"><path d="M444,220 C444,210 515.0398,210 515.0398,210 C515.0398,210 586.0795,210 586.0795,220 L586.0795,267.1358 C586.0795,277.1358 515.0398,277.1358 515.0398,277.1358 C515.0398,277.1358 444,277.1358 444,267.1358 L444,220" fill="#F1F1F1" style="stroke:#181818;stroke-width:0.5;"/><path d="M444,220 C444,230 515.0398,230 515.0398,230 C515.0398,230 586.0795,230 586.0795,220" fill="none" style="stroke:#181818;stroke-width:0.5;"/><text fill="#000000" font-family="sans-serif" font-size="14" lengthAdjust="spacing" textLength="122.0795" x="454" y="248.9659">OpenMM Quantity</text><text fill="#000000" font-family="sans-serif" font-size="14" lengthAdjust="spacing" textLength="50.0778" x="454" y="268.0339">(kJ/mol)</text></g><!--entity SC_?--><g class="entity" data-entity="SC_." data-source-line="14" data-uid="ent0007" id="entity_SC_."><path d="M473.5,424 C473.5,414 514.7969,414 514.7969,414 C514.7969,414 556.0938,414 556.0938,424 L556.0938,471.1358 C556.0938,481.1358 514.7969,481.1358 514.7969,481.1358 C514.7969,481.1358 473.5,481.1358 473.5,471.1358 L473.5,424" fill="#F1F1F1" style="stroke:#181818;stroke-width:0.5;"/><path d="M473.5,424 C473.5,434 514.7969,434 514.7969,434 C514.7969,434 556.0938,434 556.0938,424" fill="none" style="stroke:#181818;stroke-width:0.5;"/><text fill="#000000" font-family="sans-serif" font-size="14" lengthAdjust="spacing" textLength="50.4978" x="483.5" y="452.9659">scalar &#952;</text><text fill="#000000" font-family="sans-serif" font-size="14" lengthAdjust="spacing" textLength="62.5938" x="483.5" y="472.0339">(0&#8230;&#960; rad)</text></g><!--entity SC_?S--><g class="entity" data-entity="SC_.S" data-source-line="15" data-uid="ent0008" id="entity_SC_.S"><path d="M471,526 C471,516 515.1599,516 515.1599,516 C515.1599,516 559.3197,516 559.3197,526 L559.3197,573.1358 C559.3197,583.1358 515.1599,583.1358 515.1599,583.1358 C515.1599,583.1358 471,583.1358 471,573.1358 L471,526" fill="#F1F1F1" style="stroke:#181818;stroke-width:0.5;"/><path d="M471,526 C471,536 515.1599,536 515.1599,536 C515.1599,536 559.3197,536 559.3197,526" fill="none" style="stroke:#181818;stroke-width:0.5;"/><text fill="#000000" font-family="sans-serif" font-size="14" lengthAdjust="spacing" textLength="56.0558" x="481" y="554.9659">signed &#952;</text><text fill="#000000" font-family="sans-serif" font-size="14" lengthAdjust="spacing" textLength="68.3197" x="481" y="574.0339">(-&#960;&#8230;&#960; rad)</text></g><!--entity angstrom--><g class="entity" data-entity="angstrom" data-source-line="18" data-uid="ent0009" id="entity_angstrom"><rect fill="#F1F1F1" height="39.0679" rx="2.5" ry="2.5" style="stroke:#181818;stroke-width:0.5;" width="84.2178" x="282.5" y="35"/><text fill="#000000" font-family="sans-serif" font-size="14" lengthAdjust="spacing" textLength="64.2178" x="292.5" y="59.9659">angstrom</text></g><!--entity nostrom--><g class="entity" data-entity="nostrom" data-source-line="19" data-uid="ent0010" id="entity_nostrom"><rect fill="#F1F1F1" height="39.0679" rx="2.5" ry="2.5" style="stroke:#181818;stroke-width:0.5;" width="76.2238" x="286.5" y="135"/><text fill="#000000" font-family="sans-serif" font-size="14" lengthAdjust="spacing" textLength="56.2238" x="296.5" y="159.9659">nostrom</text></g><!--entity kJ--><g class="entity" data-entity="kJ" data-source-line="20" data-uid="ent0011" id="entity_kJ"><rect fill="#F1F1F1" height="39.0679" rx="2.5" ry="2.5" style="stroke:#181818;stroke-width:0.5;" width="31.298" x="309" y="227"/><text fill="#000000" font-family="sans-serif" font-size="14" lengthAdjust="spacing" textLength="11.298" x="319" y="251.9659">kJ</text></g><!--entity noJ--><g class="entity" data-entity="noJ" data-source-line="21" data-uid="ent0012" id="entity_noJ"><rect fill="#F1F1F1" height="39.0679" rx="2.5" ry="2.5" style="stroke:#181818;stroke-width:0.5;" width="40.9439" x="304" y="321"/><text fill="#000000" font-family="sans-serif" font-size="14" lengthAdjust="spacing" textLength="20.9439" x="314" y="345.9659">noJ</text></g><!--entity angle--><g class="entity" data-entity="angle" data-source-line="22" data-uid="ent0013" id="entity_angle"><rect fill="#F1F1F1" height="39.0679" rx="2.5" ry="2.5" style="stroke:#181818;stroke-width:0.5;" width="56.6239" x="296" y="409"/><text fill="#000000" font-family="sans-serif" font-size="14" lengthAdjust="spacing" textLength="36.6239" x="306" y="433.9659">angle</text></g><!--entity directed_angle--><g class="entity" data-entity="directed_angle" data-source-line="23" data-uid="ent0014" id="entity_directed_angle"><rect fill="#F1F1F1" height="39.0679" rx="2.5" ry="2.5" style="stroke:#181818;stroke-width:0.5;" width="117.0196" x="266" y="511"/><text fill="#000000" font-family="sans-serif" font-size="14" lengthAdjust="spacing" textLength="97.0196" x="276" y="535.9659">directed_angle</text></g><!--link Caller to angstrom--><g class="link" data-entity-1="Caller" data-entity-2="angstrom" data-source-line="26" data-uid="lnk15" id="link_Caller_angstrom"><path d="M29.38,250.93 C34.18,218.17 45.82,172.45 74,143.5 C130.46,85.5 221.2585,65.9413 276.2185,58.9113" fill="none" id="Caller-to-angstrom" style="stroke:#181818;stroke-width:1;"/><polygon fill="#181818" points="282.17,58.15,272.7352,55.3242,277.2104,58.7844,273.7502,63.2596,282.17,58.15" style="stroke:#181818;stroke-width:1;"/><text fill="#000000" font-family="sans-serif" font-size="13" lengthAdjust="spacing" textLength="47.983" x="131.5" y="62.397">ndarray</text></g><!--link angstrom to Q_A--><g class="link" data-entity-1="angstrom" data-entity-2="Q_A" data-source-line="27" data-uid="lnk16" id="link_angstrom_Q_A"><path d="M366.87,51.21 C389.41,49.41 411.9391,47.6278 437.8491,45.5578" fill="none" id="angstrom-to-Q_A" style="stroke:#181818;stroke-width:1;"/><polygon fill="#181818" points="443.83,45.08,434.54,41.8094,438.8459,45.4782,435.1771,49.784,443.83,45.08" style="stroke:#181818;stroke-width:1;"/></g><!--link Caller to nostrom--><g class="link" data-entity-1="Caller" data-entity-2="nostrom" data-source-line="29" data-uid="lnk17" id="link_Caller_nostrom"><path d="M44.15,262.86 C52.21,252.41 62.49,241.19 74,233.5 C141.07,188.71 229.1596,169.0242 280.5096,160.5742" fill="none" id="Caller-to-nostrom" style="stroke:#181818;stroke-width:1;"/><polygon fill="#181818" points="286.43,159.6,276.8999,157.1144,281.4964,160.4119,278.1989,165.0083,286.43,159.6" style="stroke:#181818;stroke-width:1;"/><text fill="#000000" font-family="sans-serif" font-size="13" lengthAdjust="spacing" textLength="69.7451" x="120.5" y="166.397">Quantity[&#197;]</text></g><!--link nostrom to ARR_A--><g class="link" data-entity-1="nostrom" data-entity-2="ARR_A" data-source-line="30" data-uid="lnk18" id="link_nostrom_ARR_A"><path d="M362.74,151.93 C394.18,149.76 433.1842,147.0732 465.9242,144.8132" fill="none" id="nostrom-to-ARR_A" style="stroke:#181818;stroke-width:1;"/><polygon fill="#181818" points="471.91,144.4,462.6559,141.0293,466.9219,144.7443,463.2068,149.0103,471.91,144.4" style="stroke:#181818;stroke-width:1;"/></g><!--link Caller to kJ--><g class="link" data-entity-1="Caller" data-entity-2="kJ" data-source-line="33" data-uid="lnk19" id="link_Caller_kJ"><path d="M44.16,287.81 C98.54,279.77 253.3745,256.8676 302.8845,249.5476" fill="none" id="Caller-to-kJ" style="stroke:#181818;stroke-width:1;"/><polygon fill="#181818" points="308.82,248.67,299.3317,246.0293,303.8738,249.4013,300.5018,253.9433,308.82,248.67" style="stroke:#181818;stroke-width:1;"/><text fill="#000000" font-family="sans-serif" font-size="13" lengthAdjust="spacing" textLength="47.983" x="131.5" y="256.397">ndarray</text></g><!--link kJ to Q_E--><g class="link" data-entity-1="kJ" data-entity-2="Q_E" data-source-line="34" data-uid="lnk20" id="link_kJ_Q_E"><path d="M340.29,246.26 C362.51,245.91 399.9408,245.3151 437.8108,244.7151" fill="none" id="kJ-to-Q_E" style="stroke:#181818;stroke-width:1;"/><polygon fill="#181818" points="443.81,244.62,434.7478,240.7631,438.8106,244.6992,434.8745,248.7621,443.81,244.62" style="stroke:#181818;stroke-width:1;"/></g><!--link Caller to noJ--><g class="link" data-entity-1="Caller" data-entity-2="noJ" data-source-line="36" data-uid="lnk21" id="link_Caller_noJ"><path d="M44.28,299.51 C53.07,303.48 63.87,307.84 74,310.5 C157.54,332.48 255.114,338.1806 297.754,339.7406" fill="none" id="Caller-to-noJ" style="stroke:#181818;stroke-width:1;"/><polygon fill="#181818" points="303.75,339.96,294.9023,335.6336,298.7533,339.7772,294.6098,343.6283,303.75,339.96" style="stroke:#181818;stroke-width:1;"/><text fill="#000000" font-family="sans-serif" font-size="13" lengthAdjust="spacing" textLength="100.1391" x="105" y="306.397">Quantity[kJ/mol]</text></g><!--link noJ to ARR_E--><g class="link" data-entity-1="noJ" data-entity-2="ARR_E" data-source-line="37" data-uid="lnk22" id="link_noJ_ARR_E"><path d="M345.32,341.03 C376.98,341.87 433.4221,343.3601 472.8121,344.4101" fill="none" id="noJ-to-ARR_E" style="stroke:#181818;stroke-width:1;"/><polygon fill="#181818" points="478.81,344.57,469.9198,340.3316,473.8118,344.4368,469.7066,348.3288,478.81,344.57" style="stroke:#181818;stroke-width:1;"/></g><!--link Caller to angle--><g class="link" data-entity-1="Caller" data-entity-2="angle" data-source-line="40" data-uid="lnk23" id="link_Caller_angle"><path d="M44.02,328.94 C51.65,341.59 61.67,354.66 74,363.5 C142.94,412.92 240.54,424.444 289.7,427.284" fill="none" id="Caller-to-angle" style="stroke:#181818;stroke-width:1;"/><polygon fill="#181818" points="295.69,427.63,286.9357,423.1176,290.6983,427.3416,286.4743,431.1043,295.69,427.63" style="stroke:#181818;stroke-width:1;"/><text fill="#000000" font-family="sans-serif" font-size="13" lengthAdjust="spacing" textLength="129.8961" x="90.5" y="359.397">vec A, vec B (ndarray)</text></g><!--link angle to SC_?--><g class="link" data-entity-1="angle" data-entity-2="SC_." data-source-line="41" data-uid="lnk24" id="link_angle_SC_."><path d="M353.31,431.3 C384.96,434.49 430.9602,439.1287 467.2002,442.7787" fill="none" id="angle-to-SC_&#952;" style="stroke:#181818;stroke-width:1;"/><polygon fill="#181818" points="473.17,443.38,464.6161,438.4982,468.1952,442.8789,463.8145,446.458,473.17,443.38" style="stroke:#181818;stroke-width:1;"/></g><!--link Caller to directed_angle--><g class="link" data-entity-1="Caller" data-entity-2="directed_angle" data-source-line="43" data-uid="lnk25" id="link_Caller_directed_angle"><path d="M28.01,330.04 C31.89,365.51 42.94,416.73 74,448.5 C124.92,500.58 203.4948,518.8678 259.8548,525.7978" fill="none" id="Caller-to-directed_angle" style="stroke:#181818;stroke-width:1;"/><polygon fill="#181818" points="265.81,526.53,257.3654,521.4615,260.8474,525.9198,256.3891,529.4017,265.81,526.53" style="stroke:#181818;stroke-width:1;"/><text fill="#000000" font-family="sans-serif" font-size="13" lengthAdjust="spacing" textLength="160.5111" x="75" y="444.397">vec A, vec B, axis (ndarray)</text></g><!--link directed_angle to SC_?S--><g class="link" data-entity-1="directed_angle" data-entity-2="SC_.S" data-source-line="44" data-uid="lnk26" id="link_directed_angle_SC_.S"><path d="M383.08,536.3 C411.34,539.15 438.8402,541.9289 464.8602,544.5489" fill="none" id="directed_angle-to-SC_&#952;S" style="stroke:#181818;stroke-width:1;"/><polygon fill="#181818" points="470.83,545.15,462.276,540.2685,465.8552,544.6491,461.4745,548.2282,470.83,545.15" style="stroke:#181818;stroke-width:1;"/></g><!--SRC=[nLD1Yjim5Dth58_PJ09ns_Ki2cd8nZ2KcIpR4dxidzX4aOmaTv9TDhb1pz0pp3xxcJlCIIfRYQEaK2Y4rWYC_d_lINfwaZntS1gcN1GEUMauSwLMmYvBLP6X5JAzghHYvIPk8naDWDH2SWIn1UNwgLGBp4bQ5aMPCwnZmzfjAXRY5hpsKqKI6Kd91hrCrpB7Z35nfivSRNY0aLzAyde0Tjcxlg3CQODHIsWq6gqSEJd2hCwMx2mIP8R9-R9MSeEdWXLSmHlCIsCTgAgOZ6WeCxAC6vMJCRJvgdhxdJ-PDhdjt-3maSNmyN4wZF2VArRtztYeIRdI1Lv7yFY7C_H9VPc-Nsbvakx4ntyKFz5QxHXilN5ayFBiOH_UjZzVjp2Kdsr-Cfg-FCUKSg6yCoqbUTt-JZfo9esx1SlANyoyLcq2hEWk7lw-hJDw5PMKlgmiqxDsUixtUJdDGymuduQ6k7txiRtAm7wNX7DON4lphuO8QKMIVEnSmnqEmH1TgUatsOdn1qiz_9Y8B_lTDt4iDv0GpolvXP2sVsnOVE9b6ddZ9y6LyOKhQUn8s7FZIjevChvcWjf8ulzv4jQ_mtVEC1oqlq_e7KpgYz1kWE6rnzJpPtMXCG2jInifNQ0xoOdu1G00]--></g></svg>