<svg xmlns="http://www.w3.org/2000/svg" xmlns:xlink="http://www.w3.org/1999/xlink" contentStyleType="text/css" data-diagram-type="DESCRIPTION" height="1219px" preserveAspectRatio="none" style="width:1082px;height:1219px;background:#FFFFFF;" version="1.1" viewBox="0 0 1082 1219" width="1082px" zoomAndPan="magnify"><defs/><g><!--entity Caller--><g class="entity" data-entity="Caller" data-source-line="7" data-uid="ent0002" id="entity_Caller"><ellipse cx="58.8019" cy="540.7" fill="#F1F1F1" rx="8" ry="8" style="stroke:#181818;stroke-width:0.5;"/><path d="M58.8019,548.7 L58.8019,575.7 M45.8019,556.7 L71.8019,556.7 M58.8019,575.7 L45.8019,590.7 M58.8019,575.7 L71.8019,590.7" fill="none" style="stroke:#181818;stroke-width:0.5;"/><text fill="#000000" font-family="sans-serif" font-size="14" lengthAdjust="spacing" textLength="37.6039" x="40" y="607.1659">Caller</text></g><!--entity POS--><g class="entity" data-entity="POS" data-source-line="8" data-uid="ent0003" id="entity_POS"><path d="M6,1043.2 C6,1033.2 59.0218,1033.2 59.0218,1033.2 C59.0218,1033.2 112.0437,1033.2 112.0437,1043.2 L112.0437,1090.3358 C112.0437,1100.3358 59.0218,1100.3358 59.0218,1100.3358 C59.0218,1100.3358 6,1100.3358 6,1090.3358 L6,1043.2" fill="#F1F1F1" style="stroke:#181818;stroke-width:0.5;"/><path d="M6,1043.2 C6,1053.2 59.0218,1053.2 59.0218,1053.2 C59.0218,1053.2 112.0437,1053.2 112.0437,1043.2" fill="none" style="stroke:#181818;stroke-width:0.5;"/><text fill="#000000" font-family="sans-serif" font-size="14" lengthAdjust="spacing" textLength="86.0437" x="16" y="1072.1659">NumPy array</text><text fill="#000000" font-family="sans-serif" font-size="14" lengthAdjust="spacing" textLength="81.6897" x="16" y="1091.2339">positions [&#197;]</text></g><!--entity SAMPLE--><g class="entity" data-entity="SAMPLE" data-source-line="9" data-uid="ent0004" id="entity_SAMPLE"><path d="M6,1145.2 C6,1135.2 59.0218,1135.2 59.0218,1135.2 C59.0218,1135.2 112.0437,1135.2 112.0437,1145.2 L112.0437,1192.3358 C112.0437,1202.3358 59.0218,1202.3358 59.0218,1202.3358 C59.0218,1202.3358 6,1202.3358 6,1192.3358 L6,1145.2" fill="#F1F1F1" style="stroke:#181818;stroke-width:0.5;"/><path d="M6,1145.2 C6,1155.2 59.0218,1155.2 59.0218,1155.2 C59.0218,1155.2 112.0437,1155.2 112.0437,1145.2" fill="none" style="stroke:#181818;stroke-width:0.5;"/><text fill="#000000" font-family="sans-serif" font-size="14" lengthAdjust="spacing" textLength="86.0437" x="16" y="1174.1659">NumPy array</text><text fill="#000000" font-family="sans-serif" font-size="14" lengthAdjust="spacing" textLength="47.7678" x="16" y="1193.2339">sample</text></g><!--entity REF--><g class="entity" data-entity="REF" data-source-line="10" data-uid="ent0005" id="entity_REF"><path d="M382,1043.2 C382,1033.2 449.1618,1033.2 449.1618,1033.2 C449.1618,1033.2 516.3235,1033.2 516.3235,1043.2 L516.3235,1090.3358 C516.3235,1100.3358 449.1618,1100.3358 449.1618,1100.3358 C449.1618,1100.3358 382,1100.3358 382,1090.3358 L382,1043.2" fill="#F1F1F1" style="stroke:#181818;stroke-width:0.5;"/><path d="M382,1043.2 C382,1053.2 449.1618,1053.2 449.1618,1053.2 C449.1618,1053.2 516.3235,1053.2 516.3235,1043.2" fill="none" style="stroke:#181818;stroke-width:0.5;"/><text fill="#000000" font-family="sans-serif" font-size="14" lengthAdjust="spacing" textLength="86.0437" x="392" y="1072.1659">NumPy array</text><text fill="#000000" font-family="sans-serif" font-size="14" lengthAdjust="spacing" textLength="114.3235" x="392" y="1091.2339">reference&#8901;sample</text></g><!--entity COM--><g class="entity" data-entity="COM" data-source-line="11" data-uid="ent0006" id="entity_COM"><path d="M708.5,636.2 C708.5,626.2 749.9929,626.2 749.9929,626.2 C749.9929,626.2 791.4857,626.2 791.4857,636.2 L791.4857,683.3358 C791.4857,693.3358 749.9929,693.3358 749.9929,693.3358 C749.9929,693.3358 708.5,693.3358 708.5,683.3358 L708.5,636.2" fill="#F1F1F1" style="stroke:#181818;stroke-width:0.5;"/><path d="M708.5,636.2 C708.5,646.2 749.9929,646.2 749.9929,646.2 C749.9929,646.2 791.4857,646.2 791.4857,636.2" fill="none" style="stroke:#181818;stroke-width:0.5;"/><text fill="#000000" font-family="sans-serif" font-size="14" lengthAdjust="spacing" textLength="31.0239" x="718.5" y="665.1659">Vec3</text><text fill="#000000" font-family="sans-serif" font-size="14" lengthAdjust="spacing" textLength="62.9857" x="718.5" y="684.2339">center (&#197;)</text></g><!--entity PROB--><g class="entity" data-entity="PROB" data-source-line="12" data-uid="ent0007" id="entity_PROB"><path d="M959,310.2 C959,300.2 1012.0218,300.2 1012.0218,300.2 C1012.0218,300.2 1065.0437,300.2 1065.0437,310.2 L1065.0437,357.3358 C1065.0437,367.3358 1012.0218,367.3358 1012.0218,367.3358 C1012.0218,367.3358 959,367.3358 959,357.3358 L959,310.2" fill="#F1F1F1" style="stroke:#181818;stroke-width:0.5;"/><path d="M959,310.2 C959,320.2 1012.0218,320.2 1012.0218,320.2 C1012.0218,320.2 1065.0437,320.2 1065.0437,310.2" fill="none" style="stroke:#181818;stroke-width:0.5;"/><text fill="#000000" font-family="sans-serif" font-size="14" lengthAdjust="spacing" textLength="86.0437" x="969" y="339.1659">NumPy array</text><text fill="#000000" font-family="sans-serif" font-size="14" lengthAdjust="spacing" textLength="83.0757" x="969" y="358.2339">probability P</text></g><!--entity catchZero--><g class="entity" data-entity="catchZero" data-source-line="15" data-uid="ent0008" id="entity_catchZero"><rect fill="#F1F1F1" height="39.0679" rx="2.5" ry="2.5" style="stroke:#181818;stroke-width:0.5;" width="85.1557" x="406.5" y="240.2"/><text fill="#000000" font-family="sans-serif" font-size="14" lengthAdjust="spacing" textLength="65.1557" x="416.5" y="265.1659">catchZero</text></g><!--entity rotateKernel--><g class="entity" data-entity="rotateKernel" data-source-line="16" data-uid="ent0009" id="entity_rotateKernel"><rect fill="#F1F1F1" height="39.0679" rx="2.5" ry="2.5" style="stroke:#181818;stroke-width:0.5;" width="102.6137" x="397.5" y="493.2"/><text fill="#000000" font-family="sans-serif" font-size="14" lengthAdjust="spacing" textLength="82.6137" x="407.5" y="518.1659">rotateKernel</text></g><!--entity translateKernel--><g class="entity" data-entity="translateKernel" data-source-line="17" data-uid="ent0010" id="entity_translateKernel"><rect fill="#F1F1F1" height="39.0679" rx="2.5" ry="2.5" style="stroke:#181818;stroke-width:0.5;" width="120.9676" x="388.5" y="570.2"/><text fill="#000000" font-family="sans-serif" font-size="14" lengthAdjust="spacing" textLength="100.9676" x="398.5" y="595.1659">translateKernel</text></g><!--entity centerOfMass--><g class="entity" data-entity="centerOfMass" data-source-line="18" data-uid="ent0011" id="entity_centerOfMass"><rect fill="#F1F1F1" height="39.0679" rx="2.5" ry="2.5" style="stroke:#181818;stroke-width:0.5;" width="111.7137" x="393" y="650.2"/><text fill="#000000" font-family="sans-serif" font-size="14" lengthAdjust="spacing" textLength="91.7137" x="403" y="675.1659">centerOfMass</text></g><!--entity radius--><g class="entity" data-entity="radius" data-source-line="19" data-uid="ent0012" id="entity_radius"><rect fill="#F1F1F1" height="39.0679" rx="2.5" ry="2.5" style="stroke:#181818;stroke-width:0.5;" width="61.2159" x="981.5" y="727.2"/><text fill="#000000" font-family="sans-serif" font-size="14" lengthAdjust="spacing" textLength="41.2159" x="991.5" y="752.1659">radius</text></g><!--entity kullbackLeiblerDivergenceKernel--><g class="entity" data-entity="kullbackLeiblerDivergenceKernel" data-source-line="20" data-uid="ent0013" id="entity_kullbackLeiblerDivergenceKernel"><rect fill="#F1F1F1" height="39.0679" rx="2.5" ry="2.5" style="stroke:#181818;stroke-width:0.5;" width="235.6551" x="331" y="871.2"/><text fill="#000000" font-family="sans-serif" font-size="14" lengthAdjust="spacing" textLength="215.6551" x="341" y="896.1659">kullbackLeiblerDivergenceKernel</text></g><!--entity EntropyKernel--><g class="entity" data-entity="EntropyKernel" data-source-line="21" data-uid="ent0014" id="entity_EntropyKernel"><rect fill="#F1F1F1" height="39.0679" rx="2.5" ry="2.5" style="stroke:#181818;stroke-width:0.5;" width="113.9956" x="693" y="150.2"/><text fill="#000000" font-family="sans-serif" font-size="14" lengthAdjust="spacing" textLength="93.9956" x="703" y="175.1659">EntropyKernel</text></g><!--entity ZPS--><g class="entity" data-entity="ZPS" data-source-line="22" data-uid="ent0015" id="entity_ZPS"><rect fill="#F1F1F1" height="39.0679" rx="2.5" ry="2.5" style="stroke:#181818;stroke-width:0.5;" width="44.1639" x="728" y="314.2"/><text fill="#000000" font-family="sans-serif" font-size="14" lengthAdjust="spacing" textLength="24.1639" x="738" y="339.1659">ZPS</text></g><!--entity S--><g class="entity" data-entity="S" data-source-line="23" data-uid="ent0016" id="entity_S"><rect fill="#F1F1F1" height="39.0679" rx="2.5" ry="2.5" style="stroke:#181818;stroke-width:0.5;" width="27.686" x="435" y="952.2"/><text fill="#000000" font-family="sans-serif" font-size="14" lengthAdjust="spacing" textLength="7.686" x="445" y="977.1659">S</text></g><!--link Caller to rotateKernel--><g class="link" data-entity-1="Caller" data-entity-2="rotateKernel" data-source-line="27" data-uid="lnk17" id="link_Caller_rotateKernel"><path d="M78.19,545.68 C92.96,527.01 115.6,503.35 142,492.7 C226.55,458.6 329.1273,477.4698 391.6073,494.7598" fill="none" id="Caller-to-rotateKernel" style="stroke:#181818;stroke-width:1;"/><polygon fill="#181818" points="397.39,496.36,389.7828,490.1045,392.5711,495.0265,387.6492,497.8148,397.39,496.36" style="stroke:#181818;stroke-width:1;"/><text fill="#000000" font-family="sans-serif" font-size="13" lengthAdjust="spacing" textLength="116.1941" x="163.5" y="452.597">positions, element,</text><text fill="#000000" font-family="sans-serif" font-size="13" lengthAdjust="spacing" textLength="64.623" x="189.2855" y="470.303">axis, angle</text></g><!--link rotateKernel to Caller--><g class="link" data-entity-1="rotateKernel" data-entity-2="Caller" data-source-line="28" data-uid="lnk18" id="link_rotateKernel_Caller"><path d="M397.37,517.39 C336.47,523.44 231.26,535.18 142,551.7 C119.81,555.81 100.4337,560.6503 83.9037,565.1003" fill="none" id="rotateKernel-to-Caller" style="stroke:#181818;stroke-width:1;"/><polygon fill="#181818" points="78.11,566.66,87.8404,568.1829,82.9381,565.3602,85.7608,560.4579,78.11,566.66" style="stroke:#181818;stroke-width:1;"/><text fill="#000000" font-family="sans-serif" font-size="13" lengthAdjust="spacing" textLength="129.5452" x="157" y="524.597">Quantity [&#197;] (rotated)</text></g><!--link Caller to translateKernel--><g class="link" data-entity-1="Caller" data-entity-2="translateKernel" data-source-line="30" data-uid="lnk19" id="link_Caller_translateKernel"><path d="M78.19,572.54 C133.03,575.09 292.4464,582.4819 382.3164,586.6519" fill="none" id="Caller-to-translateKernel" style="stroke:#181818;stroke-width:1;"/><polygon fill="#181818" points="388.31,586.93,379.5051,582.5171,383.3154,586.6982,379.1343,590.5085,388.31,586.93" style="stroke:#181818;stroke-width:1;"/><text fill="#000000" font-family="sans-serif" font-size="13" lengthAdjust="spacing" textLength="146.3542" x="148.5" y="571.597">positions, element, shift</text></g><!--link translateKernel to Caller--><g class="link" data-entity-1="translateKernel" data-entity-2="Caller" data-source-line="31" data-uid="lnk20" id="link_translateKernel_Caller"><path d="M388.28,603.85 C326.03,616.28 226.02,629.66 142,610.7 C118.63,605.42 99.2664,595.711 83.1964,586.221" fill="none" id="translateKernel-to-Caller" style="stroke:#181818;stroke-width:1;"/><polygon fill="#181818" points="78.03,583.17,83.7456,591.1907,82.3353,585.7125,87.8136,584.3022,78.03,583.17" style="stroke:#181818;stroke-width:1;"/><text fill="#000000" font-family="sans-serif" font-size="13" lengthAdjust="spacing" textLength="132.0931" x="155.5" y="606.597">positions&#8242; (translated)</text></g><!--link Caller to centerOfMass--><g class="link" data-entity-1="Caller" data-entity-2="centerOfMass" data-source-line="33" data-uid="lnk21" id="link_Caller_centerOfMass"><path d="M78.01,595.49 C92.99,613.28 116.01,636.41 142,647.7 C223.83,683.23 323.601,682.1813 386.931,676.8713" fill="none" id="Caller-to-centerOfMass" style="stroke:#181818;stroke-width:1;"/><polygon fill="#181818" points="392.91,676.37,383.6073,673.136,387.9275,676.7878,384.2757,681.108,392.91,676.37" style="stroke:#181818;stroke-width:1;"/><text fill="#000000" font-family="sans-serif" font-size="13" lengthAdjust="spacing" textLength="55.6141" x="194" y="643.597">positions</text></g><!--link centerOfMass to COM--><g class="link" data-entity-1="centerOfMass" data-entity-2="COM" data-source-line="34" data-uid="lnk22" id="link_centerOfMass_COM"><path d="M505.19,667.85 C563.91,665.89 649.4434,663.0306 702.0534,661.2706" fill="none" id="centerOfMass-to-COM" style="stroke:#181818;stroke-width:1;"/><polygon fill="#181818" points="708.05,661.07,698.9213,657.3732,703.0528,661.2372,699.1888,665.3687,708.05,661.07" style="stroke:#181818;stroke-width:1;"/><text fill="#000000" font-family="sans-serif" font-size="13" lengthAdjust="spacing" textLength="58.4871" x="601" y="658.597">center (&#197;)</text></g><!--link COM to radius--><g class="link" data-entity-1="COM" data-entity-2="radius" data-source-line="36" data-uid="lnk23" id="link_COM_radius"><path d="M791.62,673.29 C844.18,690.88 928.8301,719.206 975.4801,734.816" fill="none" id="COM-to-radius" style="stroke:#181818;stroke-width:1;"/><polygon fill="#181818" points="981.17,736.72,973.9045,730.0708,976.4284,735.1334,971.3658,737.6573,981.17,736.72" style="stroke:#181818;stroke-width:1;"/><text fill="#000000" font-family="sans-serif" font-size="13" lengthAdjust="spacing" textLength="39" x="863.5" y="686.597">center</text></g><!--link Caller to radius--><g class="link" data-entity-1="Caller" data-entity-2="radius" data-source-line="37" data-uid="lnk24" id="link_Caller_radius"><path d="M64.55,611.46 C72.08,657.24 91.71,730.86 142,767.7 C235.69,836.33 547.13,816.51 663,808.7 C782.03,800.68 812.6,798.83 929,772.7 C946.63,768.74 960.2409,764.656 975.6709,759.396" fill="none" id="Caller-to-radius" style="stroke:#181818;stroke-width:1;"/><polygon fill="#181818" points="981.35,757.46,971.5407,756.5779,976.6174,759.0733,974.122,764.15,981.35,757.46" style="stroke:#181818;stroke-width:1;"/><text fill="#000000" font-family="sans-serif" font-size="13" lengthAdjust="spacing" textLength="55.6141" x="602.5" y="804.597">positions</text></g><!--link radius to Caller--><g class="link" data-entity-1="radius" data-entity-2="Caller" data-source-line="38" data-uid="lnk25" id="link_radius_Caller"><path d="M981.43,748.09 C846.38,753.9 288.6,772.28 142,686.7 C112.67,669.58 93.8574,642.6332 80.2174,616.6332" fill="none" id="radius-to-Caller" style="stroke:#181818;stroke-width:1;"/><polygon fill="#181818" points="77.43,611.32,78.0689,621.1481,79.7528,615.7477,85.1533,617.4316,77.43,611.32" style="stroke:#181818;stroke-width:1;"/><text fill="#000000" font-family="sans-serif" font-size="13" lengthAdjust="spacing" textLength="55.9131" x="602.5" y="748.597">float r (&#197;)</text></g><!--link Caller to kullbackLeiblerDivergenceKernel--><g class="link" data-entity-1="Caller" data-entity-2="kullbackLeiblerDivergenceKernel" data-source-line="41" data-uid="lnk26" id="link_Caller_kullbackLeiblerDivergenceKernel"><path d="M60.3,611.42 C63.04,669.6 77.19,777.31 142,834.7 C149.37,841.22 241.6092,857.4985 324.7992,871.1485" fill="none" id="Caller-to-kullbackLeiblerDivergenceKernel" style="stroke:#181818;stroke-width:1;"/><polygon fill="#181818" points="330.72,872.12,322.4864,866.7155,325.786,871.3104,321.1911,874.61,330.72,872.12" style="stroke:#181818;stroke-width:1;"/><text fill="#000000" font-family="sans-serif" font-size="13" lengthAdjust="spacing" textLength="157.3781" x="143" y="830.597">sample, reference&#8901;sample</text></g><!--link kullbackLeiblerDivergenceKernel to Caller--><g class="link" data-entity-1="kullbackLeiblerDivergenceKernel" data-entity-2="Caller" data-source-line="42" data-uid="lnk27" id="link_kullbackLeiblerDivergenceKernel_Caller"><path d="M330.94,906.85 C257.28,914.3 170.88,917.17 142,894.7 C97.36,859.98 73.7624,695.8811 64.7824,617.4411" fill="none" id="kullbackLeiblerDivergenceKernel-to-Caller" style="stroke:#181818;stroke-width:1;"/><polygon fill="#181818" points="64.1,611.48,61.1496,620.8766,64.6687,616.4476,69.0977,619.9666,64.1,611.48" style="stroke:#181818;stroke-width:1;"/><text fill="#000000" font-family="sans-serif" font-size="13" lengthAdjust="spacing" textLength="133.5881" x="155" y="890.597">KL-divergence (scalar)</text></g><!--link Caller to EntropyKernel--><g class="link" data-entity-1="Caller" data-entity-2="EntropyKernel" data-source-line="44" data-uid="lnk28" id="link_Caller_EntropyKernel"><path d="M61.43,532 C65.82,435.52 82.65,193.02 142,143.7 C307.69,6 589.8386,102.2795 699.3886,147.7595" fill="none" id="Caller-to-EntropyKernel" style="stroke:#181818;stroke-width:1;"/><polygon fill="#181818" points="704.93,150.06,698.1515,142.9149,700.3121,148.1429,695.0842,150.3035,704.93,150.06" style="stroke:#181818;stroke-width:1;"/><text fill="#000000" font-family="sans-serif" font-size="13" lengthAdjust="spacing" textLength="44.356" x="427" y="69.597">sample</text></g><!--link EntropyKernel to Caller--><g class="link" data-entity-1="EntropyKernel" data-entity-2="Caller" data-source-line="45" data-uid="lnk29" id="link_EntropyKernel_Caller"><path d="M692.76,163.56 C558.45,150.17 224.09,124.79 142,193.7 C90.5,236.93 69.8586,437.8375 63.1086,525.8975" fill="none" id="EntropyKernel-to-Caller" style="stroke:#181818;stroke-width:1;"/><polygon fill="#181818" points="62.65,531.88,67.3262,523.212,63.0321,526.8946,59.3496,522.6006,62.65,531.88" style="stroke:#181818;stroke-width:1;"/><text fill="#000000" font-family="sans-serif" font-size="13" lengthAdjust="spacing" textLength="107.8871" x="395.5" y="144.597">entropy H (scalar)</text></g><!--link Caller to ZPS--><g class="link" data-entity-1="Caller" data-entity-2="ZPS" data-source-line="47" data-uid="lnk30" id="link_Caller_ZPS"><path d="M63.52,532.17 C70.08,484.44 88.81,405.86 142,367.7 C238.16,298.72 625.638,324.0357 721.758,331.4957" fill="none" id="Caller-to-ZPS" style="stroke:#181818;stroke-width:1;"/><polygon fill="#181818" points="727.74,331.96,719.0765,327.2756,722.755,331.5731,718.4575,335.2516,727.74,331.96" style="stroke:#181818;stroke-width:1;"/><text fill="#000000" font-family="sans-serif" font-size="13" lengthAdjust="spacing" textLength="59.423" x="419.5" y="317.597">sample, &#946;</text></g><!--link ZPS to Caller--><g class="link" data-entity-1="ZPS" data-entity-2="Caller" data-source-line="49" data-uid="lnk32" id="link_ZPS_Caller"><path d="M727.99,335.94 C626.72,346.88 191.68,395.56 142,429.7 C106.57,454.04 86.5019,493.4465 74.2819,526.2965" fill="none" id="ZPS-to-Caller" style="stroke:#181818;stroke-width:1;"/><polygon fill="#181818" points="72.19,531.92,79.0769,524.8793,73.9333,527.2337,71.5789,522.0901,72.19,531.92" style="stroke:#181818;stroke-width:1;"/><text fill="#000000" font-family="sans-serif" font-size="13" lengthAdjust="spacing" textLength="144.3652" x="377" y="351.597">Z (partition), S (entropy)</text></g><!--link ZPS to PROB--><g class="link" data-entity-1="ZPS" data-entity-2="PROB" data-source-line="48" data-uid="lnk31" id="link_ZPS_PROB"><path d="M772.28,333.7 C812.72,333.7 895.76,333.7 952.93,333.7" fill="none" id="ZPS-to-PROB" style="stroke:#181818;stroke-width:1;"/><polygon fill="#181818" points="958.93,333.7,949.93,329.7,953.93,333.7,949.93,337.7,958.93,333.7" style="stroke:#181818;stroke-width:1;"/><text fill="#000000" font-family="sans-serif" font-size="13" lengthAdjust="spacing" textLength="90.1681" x="838" y="329.597">P  &#171;computed&#187;</text></g><!--link Caller to S--><g class="link" data-entity-1="Caller" data-entity-2="S" data-source-line="51" data-uid="lnk33" id="link_Caller_S"><path d="M63.1,611.22 C70.68,697.04 93.25,896.26 142,939.7 C186.07,978.97 376.1044,974.5195 428.8844,972.4995" fill="none" id="Caller-to-S" style="stroke:#181818;stroke-width:1;"/><polygon fill="#181818" points="434.88,972.27,425.7336,968.6171,429.8837,972.4612,426.0396,976.6113,434.88,972.27" style="stroke:#181818;stroke-width:1;"/><text fill="#000000" font-family="sans-serif" font-size="13" lengthAdjust="spacing" textLength="59.423" x="192" y="935.597">sample, &#946;</text></g><!--link S to Caller--><g class="link" data-entity-1="S" data-entity-2="Caller" data-source-line="52" data-uid="lnk34" id="link_S_Caller"><path d="M434.95,975.23 C382.47,989.1 187.44,1037.26 142,999.7 C82.52,950.53 66.0408,713.9339 61.6808,617.4139" fill="none" id="S-to-Caller" style="stroke:#181818;stroke-width:1;"/><polygon fill="#181818" points="61.41,611.42,57.8202,620.5913,61.6356,616.4149,65.8121,620.2303,61.41,611.42" style="stroke:#181818;stroke-width:1;"/><text fill="#000000" font-family="sans-serif" font-size="13" lengthAdjust="spacing" textLength="105.3911" x="169" y="995.597">entropy S (scalar)</text></g><!--link Caller to catchZero--><g class="link" data-entity-1="Caller" data-entity-2="catchZero" data-source-line="55" data-uid="lnk35" id="link_Caller_catchZero"><path d="M64.3,532.18 C73.59,455.16 98.29,289.51 142,255.7 C218.9,196.21 336.5076,221.9745 400.5876,242.5645" fill="none" id="Caller-to-catchZero" style="stroke:#181818;stroke-width:1;"/><polygon fill="#181818" points="406.3,244.4,398.9551,237.8385,401.5397,242.8704,396.5078,245.455,406.3,244.4" style="stroke:#181818;stroke-width:1;"/><text fill="#000000" font-family="sans-serif" font-size="13" lengthAdjust="spacing" textLength="50.5181" x="196.5" y="216.597">numeric</text></g><!--link catchZero to Caller--><g class="link" data-entity-1="catchZero" data-entity-2="Caller" data-source-line="56" data-uid="lnk36" id="link_catchZero_Caller"><path d="M406.47,266.01 C325.15,278.51 151.92,306 142,314.7 C78.62,370.28 64.1655,468.7694 60.9655,525.8994" fill="none" id="catchZero-to-Caller" style="stroke:#181818;stroke-width:1;"/><polygon fill="#181818" points="60.63,531.89,65.1271,523.1278,60.9096,526.8978,57.1396,522.6804,60.63,531.89" style="stroke:#181818;stroke-width:1;"/><text fill="#000000" font-family="sans-serif" font-size="13" lengthAdjust="spacing" textLength="64.2331" x="189.5" y="279.597">numeric+&#949;</text></g><!--link catchZero to EntropyKernel--><g class="link" data-entity-1="catchZero" data-entity-2="EntropyKernel" data-source-line="57" data-uid="lnk37" id="link_catchZero_EntropyKernel"><path d="M491.76,254.33 C535.39,247.93 605.38,235.42 663,214.7 C681.39,208.09 695.5483,201.1676 711.2383,192.3576" fill="none" id="catchZero-to-EntropyKernel" style="stroke:#181818;stroke-width:1;"/><polygon fill="#181818" points="716.47,189.42,706.6641,190.3386,712.1103,191.868,710.5809,197.3142,716.47,189.42" style="stroke:#181818;stroke-width:1;"/><text fill="#000000" font-family="sans-serif" font-size="13" lengthAdjust="spacing" textLength="64.2331" x="598" y="210.597">numeric+&#949;</text></g><!--link catchZero to ZPS--><g class="link" data-entity-1="catchZero" data-entity-2="ZPS" data-source-line="58" data-uid="lnk38" id="link_catchZero_ZPS"><path d="M491.57,269.99 C556.24,285.99 672.7655,314.8396 721.9355,326.9996" fill="none" id="catchZero-to-ZPS" style="stroke:#181818;stroke-width:1;"/><polygon fill="#181818" points="727.76,328.44,719.9835,322.3963,722.9062,327.2396,718.0629,330.1624,727.76,328.44" style="stroke:#181818;stroke-width:1;"/><text fill="#000000" font-family="sans-serif" font-size="13" lengthAdjust="spacing" textLength="64.2331" x="598" y="292.597">numeric+&#949;</text></g><!--SRC=[hLMnRjim4Dtr5OSEZOFQKxSW2D2cAGeahjq8w92cmrawsOGfKY2f9jgoPEhQBmdGByYUZyYNb9HKcPJjs40hQD7TktValRiJfyo0aQ3OV64WPOeImwI8z9A90XNcaCYya8A4YKt52Hm0nPoJ1z4BJEKD4tF8a6kA5Ymbq8OKILCL54K7px_kNdY1RYrO80TCZ5Jm6b8q2BCoMPBHy7BmpZTgI05EaNDIaUEUeIPuzRdCfnMWKbXTYq9gvgwkuTlZ_VTNq3seOJg9juLfp0jE7dmL5RyRJo_EjWKgoco1H4BFF-z34XjwUVRHY_jAoTjhYnIsIZ1ul3zSJzU4dKx6Mw-dv0ndZ3DJmRHtkyl9-zqQBQr2n651l22bNLpN6VyiaLEfOuC4JRAu8YKzcv863PtNP_3CHg7GV9EdgTOa6wFMFW-chFGDovBp6IRB2s8psnqVs0zISoVB6kEPC4eMrPhzQXfxN_7EIcweRTtk6PSt_wEIUrNxO3I2EScSZ699gws6qPvFr8oInPy4oi0HT6Cq1EAKsv8ChmNUCllTh8q0xmXQhYFuKg8mhZ_T0CAW0QQ7aP-j9_ZcX7OXiSn4VMoGh0jxldk0GGVjfVExo0-A0aTDF1dNytG4tfnQhjfSrwdklCuVbF2lQyNVce8ZsmP1sy4jirEGYKog75t8o2n8gcfVAVtqEqR0Pcxsqn3MTrQqApYumVd5AEq0CD09SbHXnOCfwr97eJaWfSO5dpOJsl7qRl3q43c3SxYrLmis1JW-TXDSMlrFJZf0b-4A1lP7Psff3eSGmw3D6MRgvGb8l7F6tZcTYCr6tNlsDgdOjbYtEDjE56LEThoZbTq_4OIeDq-_Uy2-55k1hc2h9m3-0G00]--></g></svg>