<svg xmlns="http://www.w3.org/2000/svg" xmlns:xlink="http://www.w3.org/1999/xlink" contentStyleType="text/css" data-diagram-type="DESCRIPTION" height="494px" preserveAspectRatio="none" style="width:898px;height:494px;background:#FFFFFF;" version="1.1" viewBox="0 0 898 494" width="898px" zoomAndPan="magnify"><defs/><g><!--entity Caller--><g class="entity" data-entity="Caller" data-source-line="7" data-uid="ent0002" id="entity_Caller"><ellipse cx="24.8019" cy="342" fill="#F1F1F1" rx="8" ry="8" style="stroke:#181818;stroke-width:0.5;"/><path d="M24.8019,350 L24.8019,377 M11.8019,358 L37.8019,358 M24.8019,377 L11.8019,392 M24.8019,377 L37.8019,392" fill="none" style="stroke:#181818;stroke-width:0.5;"/><text fill="#000000" font-family="sans-serif" font-size="14" lengthAdjust="spacing" textLength="37.6039" x="6" y="408.4659">Caller</text></g><!--entity FF_FILES--><g class="entity" data-entity="FF_FILES" data-source-line="8" data-uid="ent0003" id="entity_FF_FILES"><path d="M268,139.5 C268,129.5 327.3708,129.5 327.3708,129.5 C327.3708,129.5 386.7416,129.5 386.7416,139.5 L386.7416,186.6358 C386.7416,196.6358 327.3708,196.6358 327.3708,196.6358 C327.3708,196.6358 268,196.6358 268,186.6358 L268,139.5" fill="#F1F1F1" style="stroke:#181818;stroke-width:0.5;"/><path d="M268,139.5 C268,149.5 327.3708,149.5 327.3708,149.5 C327.3708,149.5 386.7416,149.5 386.7416,139.5" fill="none" style="stroke:#181818;stroke-width:0.5;"/><text fill="#000000" font-family="sans-serif" font-size="14" lengthAdjust="spacing" textLength="79.4357" x="278" y="168.4659">residue files</text><text fill="#000000" font-family="sans-serif" font-size="14" lengthAdjust="spacing" textLength="98.7416" x="278" y="187.5339">*.lib / *.frcmod</text></g><!--entity INIT_ARGS--><g class="entity" data-entity="INIT_ARGS" data-source-line="11" data-uid="ent0004" id="entity_INIT_ARGS"><rect fill="#F1F1F1" height="58.1358" rx="2.5" ry="2.5" style="stroke:#181818;stroke-width:0.5;" width="146.6155" x="254" y="232"/><text fill="#000000" font-family="sans-serif" font-size="14" lengthAdjust="spacing" textLength="54.3898" x="264" y="256.9659">init-args</text><text fill="#000000" font-family="sans-serif" font-size="14" lengthAdjust="spacing" textLength="126.6155" x="264" y="276.0339">(residue_names, ...)</text></g><!--entity INIT--><g class="entity" data-entity="INIT" data-source-line="14" data-uid="ent0005" id="entity_INIT"><rect fill="#F1F1F1" height="39.0679" rx="2.5" ry="2.5" style="stroke:#181818;stroke-width:0.5;" width="105.9597" x="574" y="200.5"/><text fill="#000000" font-family="sans-serif" font-size="14" lengthAdjust="spacing" textLength="65.0298" x="584" y="225.4659">Structure.</text><text fill="#000000" font-family="sans-serif" font-size="14" lengthAdjust="spacing" text-decoration="underline" textLength="20.9299" x="649.0298" y="225.4659">init</text></g><!--entity ROT--><g class="entity" data-entity="ROT" data-source-line="15" data-uid="ent0006" id="entity_ROT"><rect fill="#F1F1F1" height="58.1358" rx="2.5" ry="2.5" style="stroke:#181818;stroke-width:0.5;" width="140.1055" x="746.5" y="287"/><text fill="#000000" font-family="sans-serif" font-size="14" lengthAdjust="spacing" textLength="120.1055" x="756.5" y="311.9659">rotating_elements</text><text fill="#000000" font-family="sans-serif" font-size="14" lengthAdjust="spacing" textLength="32.3959" x="756.5" y="331.0339">(dict)</text></g><!--entity BB--><g class="entity" data-entity="BB" data-source-line="16" data-uid="ent0007" id="entity_BB"><rect fill="#F1F1F1" height="58.1358" rx="2.5" ry="2.5" style="stroke:#181818;stroke-width:0.5;" width="151.3055" x="741" y="193"/><text fill="#000000" font-family="sans-serif" font-size="14" lengthAdjust="spacing" textLength="131.3055" x="751" y="217.9659">backbone_elements</text><text fill="#000000" font-family="sans-serif" font-size="14" lengthAdjust="spacing" textLength="32.3959" x="751" y="237.0339">(dict)</text></g><!--entity ALIAS--><g class="entity" data-entity="ALIAS" data-source-line="17" data-uid="ent0008" id="entity_ALIAS"><rect fill="#F1F1F1" height="58.1358" rx="2.5" ry="2.5" style="stroke:#181818;stroke-width:0.5;" width="86.3038" x="773.5" y="382"/><text fill="#000000" font-family="sans-serif" font-size="14" lengthAdjust="spacing" textLength="66.3038" x="783.5" y="406.9659">alias table</text><text fill="#000000" font-family="sans-serif" font-size="14" lengthAdjust="spacing" textLength="32.3959" x="783.5" y="426.0339">(dict)</text></g><!--entity CONNECT--><g class="entity" data-entity="CONNECT" data-source-line="18" data-uid="ent0009" id="entity_CONNECT"><rect fill="#F1F1F1" height="58.1358" rx="2.5" ry="2.5" style="stroke:#181818;stroke-width:0.5;" width="108.8297" x="762" y="7"/><text fill="#000000" font-family="sans-serif" font-size="14" lengthAdjust="spacing" textLength="88.8297" x="772" y="31.9659">connect table</text><text fill="#000000" font-family="sans-serif" font-size="14" lengthAdjust="spacing" textLength="32.3959" x="772" y="51.0339">(dict)</text></g><!--entity LEAP_STR--><g class="entity" data-entity="LEAP_STR" data-source-line="19" data-uid="ent0010" id="entity_LEAP_STR"><rect fill="#F1F1F1" height="58.1358" rx="2.5" ry="2.5" style="stroke:#181818;stroke-width:0.5;" width="100.1917" x="766.5" y="100"/><text fill="#000000" font-family="sans-serif" font-size="14" lengthAdjust="spacing" textLength="65.5618" x="776.5" y="124.9659">init_string</text><text fill="#000000" font-family="sans-serif" font-size="14" lengthAdjust="spacing" textLength="80.1917" x="776.5" y="144.0339">(tleap cmds)</text></g><!--entity ADDROT--><g class="entity" data-entity="ADDROT" data-source-line="22" data-uid="ent0011" id="entity_ADDROT"><rect fill="#F1F1F1" height="39.0679" rx="2.5" ry="2.5" style="stroke:#181818;stroke-width:0.5;" width="112.6377" x="431" y="323.5"/><text fill="#000000" font-family="sans-serif" font-size="14" lengthAdjust="spacing" textLength="92.6377" x="441" y="348.4659">add_rotation()</text></g><!--entity TRANS--><g class="entity" data-entity="TRANS" data-source-line="23" data-uid="ent0012" id="entity_TRANS"><rect fill="#F1F1F1" height="39.0679" rx="2.5" ry="2.5" style="stroke:#181818;stroke-width:0.5;" width="86.8638" x="284" y="396.5"/><text fill="#000000" font-family="sans-serif" font-size="14" lengthAdjust="spacing" textLength="66.8638" x="294" y="421.4659">translate()</text></g><!--link Caller to INIT_ARGS--><g class="link" data-entity-1="Caller" data-entity-2="INIT_ARGS" data-source-line="26" data-uid="lnk13" id="link_Caller_INIT_ARGS"><path d="M44.03,344.52 C52.01,334.07 62.26,323.08 74,316 C128.75,282.98 194.8096,270.2757 247.9296,264.9757" fill="none" id="Caller-to-INIT_ARGS" style="stroke:#181818;stroke-width:1;"/><polygon fill="#181818" points="253.9,264.38,244.5473,261.2933,248.9247,264.8764,245.3416,269.2538,253.9,264.38" style="stroke:#181818;stroke-width:1;"/></g><!--link INIT_ARGS to INIT--><g class="link" data-entity-1="INIT_ARGS" data-entity-2="INIT" data-source-line="27" data-uid="lnk14" id="link_INIT_ARGS_INIT"><path d="M401.28,250.97 C454.6,243.62 519.7962,234.6391 567.6162,228.0491" fill="none" id="INIT_ARGS-to-INIT" style="stroke:#181818;stroke-width:1;"/><polygon fill="#181818" points="573.56,227.23,564.0982,224.4961,568.6068,227.9126,565.1903,232.4212,573.56,227.23" style="stroke:#181818;stroke-width:1;"/></g><!--link FF_FILES to INIT--><g class="link" data-entity-1="FF_FILES" data-entity-2="INIT" data-source-line="29" data-uid="lnk15" id="link_FF_FILES_INIT"><path d="M387.28,174.26 C441.63,184.68 515.7771,198.8811 567.9271,208.8711" fill="none" id="FF_FILES-to-INIT" style="stroke:#181818;stroke-width:1;"/><polygon fill="#181818" points="573.82,210,565.7333,204.3782,568.9093,209.0593,564.2282,212.2353,573.82,210" style="stroke:#181818;stroke-width:1;"/><text fill="#000000" font-family="sans-serif" font-size="13" lengthAdjust="spacing" textLength="86.6581" x="444.5" y="178.897">embeds paths</text></g><!--link INIT to ROT--><g class="link" data-entity-1="INIT" data-entity-2="ROT" data-source-line="31" data-uid="lnk16" id="link_INIT_ROT"><path d="M666.4,239.66 C692.97,253.26 723.4391,268.8661 753.3091,284.1561" fill="none" id="INIT-to-ROT" style="stroke:#181818;stroke-width:1;"/><polygon fill="#181818" points="758.65,286.89,752.4612,279.2285,754.1992,284.6117,748.816,286.3497,758.65,286.89" style="stroke:#181818;stroke-width:1;"/></g><!--link INIT to BB--><g class="link" data-entity-1="INIT" data-entity-2="BB" data-source-line="32" data-uid="lnk17" id="link_INIT_BB"><path d="M680.23,220.56 C698.98,220.76 714.5003,220.9279 734.7803,221.1379" fill="none" id="INIT-to-BB" style="stroke:#181818;stroke-width:1;"/><polygon fill="#181818" points="740.78,221.2,731.8219,217.107,735.7803,221.1482,731.7391,225.1066,740.78,221.2" style="stroke:#181818;stroke-width:1;"/></g><!--link INIT to ALIAS--><g class="link" data-entity-1="INIT" data-entity-2="ALIAS" data-source-line="33" data-uid="lnk18" id="link_INIT_ALIAS"><path d="M640.5,239.72 C659.67,268.96 698.6,324.5 741,363 C750.68,371.79 757.1068,376.7894 768.1068,383.8794" fill="none" id="INIT-to-ALIAS" style="stroke:#181818;stroke-width:1;"/><polygon fill="#181818" points="773.15,387.13,767.7523,378.892,768.9473,384.4212,763.4182,385.6163,773.15,387.13" style="stroke:#181818;stroke-width:1;"/></g><!--link INIT to CONNECT--><g class="link" data-entity-1="INIT" data-entity-2="CONNECT" data-source-line="34" data-uid="lnk19" id="link_INIT_CONNECT"><path d="M640.87,200.44 C660.23,172.02 699.06,118.71 741,82 C747.86,75.99 750.6136,73.617 758.4436,68.377" fill="none" id="INIT-to-CONNECT" style="stroke:#181818;stroke-width:1;"/><polygon fill="#181818" points="763.43,65.04,753.7257,66.7212,759.2747,67.8208,758.1751,73.3698,763.43,65.04" style="stroke:#181818;stroke-width:1;"/></g><!--link INIT to LEAP_STR--><g class="link" data-entity-1="INIT" data-entity-2="LEAP_STR" data-source-line="35" data-uid="lnk20" id="link_INIT_LEAP_STR"><path d="M668.22,200.48 C696.95,186.53 730.3717,170.3088 760.9417,155.4788" fill="none" id="INIT-to-LEAP_STR" style="stroke:#181818;stroke-width:1;"/><polygon fill="#181818" points="766.34,152.86,756.4967,153.1893,761.8414,155.0423,759.9884,160.3871,766.34,152.86" style="stroke:#181818;stroke-width:1;"/></g><!--link Caller to ADDROT--><g class="link" data-entity-1="Caller" data-entity-2="ADDROT" data-source-line="37" data-uid="lnk21" id="link_Caller_ADDROT"><path d="M44.05,371.82 C108.24,367.64 321.1327,353.7698 424.9727,347.0098" fill="none" id="Caller-to-ADDROT" style="stroke:#181818;stroke-width:1;"/><polygon fill="#181818" points="430.96,346.62,421.7192,343.2131,425.9706,346.9448,422.2389,351.1962,430.96,346.62" style="stroke:#181818;stroke-width:1;"/><text fill="#000000" font-family="sans-serif" font-size="13" lengthAdjust="spacing" textLength="148.4861" x="75" y="355.897">residue_name, rotations</text></g><!--link ADDROT to ROT--><g class="link" data-entity-1="ADDROT" data-entity-2="ROT" data-source-line="38" data-uid="lnk22" id="link_ADDROT_ROT"><path d="M544.34,338.39 C600.16,333.78 680.1303,327.1733 740.2603,322.2133" fill="none" id="ADDROT-to-ROT" style="stroke:#181818;stroke-width:1;"/><polygon fill="#181818" points="746.24,321.72,736.9416,318.4734,741.2569,322.131,737.5993,326.4463,746.24,321.72" style="stroke:#181818;stroke-width:1;"/></g><!--link Caller to TRANS--><g class="link" data-entity-1="Caller" data-entity-2="TRANS" data-source-line="40" data-uid="lnk23" id="link_Caller_TRANS"><path d="M44.36,388.68 C52.82,394.96 63.34,401.52 74,405 C144.7,428.1 226.4924,425.948 277.7324,421.508" fill="none" id="Caller-to-TRANS" style="stroke:#181818;stroke-width:1;"/><polygon fill="#181818" points="283.71,420.99,274.3983,417.7819,278.7287,421.4216,275.0889,425.752,283.71,420.99" style="stroke:#181818;stroke-width:1;"/><text fill="#000000" font-family="sans-serif" font-size="13" lengthAdjust="spacing" textLength="97.5781" x="100.5" y="400.897">sequence string</text></g><!--link TRANS to Caller--><g class="link" data-entity-1="TRANS" data-entity-2="Caller" data-source-line="42" data-uid="lnk25" id="link_TRANS_Caller"><path d="M286.54,435.53 C234.29,458.05 141.49,487.46 74,450 C59.26,441.82 51.2472,432.3433 43.6672,417.8933" fill="none" id="TRANS-to-Caller" style="stroke:#181818;stroke-width:1;"/><polygon fill="#181818" points="40.88,412.58,41.5186,422.4081,43.2027,417.0078,48.603,418.6919,40.88,412.58" style="stroke:#181818;stroke-width:1;"/><text fill="#000000" font-family="sans-serif" font-size="13" lengthAdjust="spacing" textLength="101.3351" x="98.5" y="445.897">translated string</text></g><!--link TRANS to ALIAS--><g class="link" data-entity-1="TRANS" data-entity-2="ALIAS" data-source-line="41" data-uid="lnk24" id="link_TRANS_ALIAS"><path d="M371.29,415.56 C463.78,414.61 675.3903,412.442 767.3303,411.492" fill="none" id="TRANS-to-ALIAS" style="stroke:#181818;stroke-width:1;"/><polygon fill="#181818" points="773.33,411.43,764.2892,407.5232,768.3303,411.4817,764.3718,415.5228,773.33,411.43" style="stroke:#181818;stroke-width:1;"/></g><!--SRC=[nLHDRzim3BthLn0vR5dNUFSU1gHfCWG8qY79SO11MqmiL9OyIKRNstx4Vk5-oIX_nIwANXSOWVNoI3u-Kj5q3X0iE7Kf0aZbA0_A6k6VbAdGOGcvBIjho8HZUD44aO3cecb4yGLA-wpC1SweFOb2IG8Vo94DBnK9yH7e5nyDQi0yM0SVm5Qn3WDdfScB5cu-AzIQd90OC4DFZCmSUILhQha_p4sYLGPVu2OvkxoqSWReORD9DzlT-XYheRlK9Kk6h3QIHLVeFSdOPvegeqAQYg4FJX-X1STmwdbNAZLOah-594a-DUct- -qfNHw-DVbpwuY_Z0-kReH_1cMw1bbrR6YmZVCV6rhjAEdBpzfM-yGJjhC10vkPagROH5GbLHvQ7OV7AJl3_2dZmzli-_i96RLYi55ufGrAbhljyZZXSuk6VNehWlchn_r-lPhAQTfZMrW_yuCch20lfM_bxDRBx-dnT8WULdMcLGu5wOeSb1GAAwUsePHfQuOryrWsQdnuUEr0S6Yyna3pgxJJORcFa_hxv_Sx3yGTWxEspnxUP_x7HxJt0HQBhwCb7Du6N8Z-1WmGt06L6KdF5o0KNZHHpQ_Hm-70IpAyjpim7FiH3y1rWYDPxL2uslZot48_EoywGbzv7DjCYaCz_Qp9vF5_8owFQF6HfX7GXT_1C7hPXVq3]--></g></svg>